<svg xmlns="http://www.w3.org/2000/svg" data-name="Layer 1" viewBox="0 0 512 512" x="0px" y="0px"><path d="M385.64,289.47c-52.38,0-95,43.81-95,97.66s42.62,97.66,95,97.66,95-43.81,95-97.66-42.62-97.66-95-97.66Zm0,171.33c-39.15,0-71-33.05-71-73.66s31.85-73.66,71-73.66,71,33.05,71,73.66-31.85,73.66-71,73.66Z"/><path d="M415.36,375.13h-17.71v-32.53c0-6.63-5.37-12-12-12s-12,5.37-12,12v44.53c0,6.63,5.37,12,12,12h29.71c6.63,0,12-5.37,12-12s-5.37-12-12-12Z"/><path d="M214.84,192.36l-47.29-90.89c-5.06-9.74-15.03-15.78-26-15.78H63.3c-16.16,0-29.31,13.15-29.31,29.31v181.77c0,16.16,13.15,29.31,29.31,29.31h78.25c10.97,0,20.94-6.05,26-15.78l47.29-90.89c4.41-8.47,4.41-18.59,0-27.06Zm-21.29,15.98l-47.29,90.89c-.92,1.76-2.72,2.86-4.71,2.86H63.3c-2.93,0-5.31-2.38-5.31-5.31V115c0-2.93,2.38-5.31,5.31-5.31h78.25c1.99,0,3.79,1.1,4.71,2.86l47.29,90.89c.8,1.53,.8,3.37,0,4.9Z"/><path d="M297.23,310.18l47.16-90.65c4.44-8.54,4.44-18.73,0-27.27l-47.16-90.65c-5.11-9.81-15.15-15.91-26.21-15.91h-70.49c-6.63,0-12,5.37-12,12s5.37,12,12,12h70.49c2.08,0,3.96,1.14,4.92,2.99l47.16,90.65c.83,1.6,.83,3.52,0,5.12l-47.16,90.65c-.96,1.84-2.84,2.99-4.92,2.99h-70.49c-6.63,0-12,5.37-12,12s5.37,12,12,12h70.49c11.06,0,21.1-6.1,26.21-15.91Z"/><path d="M331.87,109.69h70.49c2.08,0,3.97,1.14,4.92,2.99l47.16,90.65c.83,1.61,.83,3.53,0,5.13l-28.02,53.86c-3.06,5.88-.77,13.12,5.11,16.18,1.77,.92,3.66,1.36,5.53,1.36,4.33,0,8.52-2.35,10.66-6.46l28.02-53.86c4.44-8.54,4.44-18.73,0-27.27l-47.16-90.65c-5.1-9.82-15.15-15.92-26.22-15.92h-70.49c-6.63,0-12,5.37-12,12s5.37,12,12,12Z"/></svg>
